HIERARCHY
ROOT hip
{
  OFFSET 0 0 0
  CHANNELS 6 Xposition Yposition Zposition Zrotation Yrotation Xrotation
  JOINT abdomen
  {
    OFFSET 0 20.6881 -0.73152
    CHANNELS 3 Zrotation Xrotation Yrotation
    JOINT chest
    {
      OFFSET 0 11.7043 -0.48768
      CHANNELS 3 Zrotation Xrotation Yrotation
      JOINT neck
      {
        OFFSET 0 22.1894 -2.19456
        CHANNELS 3 Zrotation Xrotation Yrotation
        JOINT head
        {
          OFFSET -0.24384 7.07133 1.2192
          CHANNELS 3 Zrotation Xrotation Yrotation
          JOINT leftEye
          {
            OFFSET 4.14528 8.04674 8.04672
            CHANNELS 3 Zrotation Xrotation Yrotation
            End Site
            {
              OFFSET 1 0 0
            }
          }
          JOINT rightEye
          {
            OFFSET -3.6576 8.04674 8.04672
            CHANNELS 3 Zrotation Xrotation Yrotation
            End Site
            {
              OFFSET 1 0 0
            }
          }
        }
      }
      JOINT rCollar
      {
        OFFSET -2.68224 19.2634 -4.8768
        CHANNELS 3 Zrotation Xrotation Yrotation
        JOINT rShldr
        {
          OFFSET -8.77824 -1.95073 1.46304
          CHANNELS 3 Zrotation Xrotation Yrotation
          JOINT rForeArm
          {
            OFFSET -28.1742 -1.7115 0.48768
            CHANNELS 3 Zrotation Xrotation Yrotation
            JOINT rHand
            {
              OFFSET -22.5879 0.773209 7.07136
              CHANNELS 3 Zrotation Xrotation Yrotation
              JOINT rThumb1
              {
                OFFSET -1.2192 -0.487915 3.41376
                CHANNELS 3 Zrotation Xrotation Yrotation
                JOINT rThumb2
                {
                  OFFSET -3.37035 -0.52449 3.41376
                  CHANNELS 3 Zrotation Xrotation Yrotation
                  End Site
                  {
                    OFFSET -1.78271 -1.18214 1.43049
                  }
                }
              }
              JOINT rIndex1
              {
                OFFSET -7.75947 0.938293 5.60832
                CHANNELS 3 Zrotation Xrotation Yrotation
                JOINT rIndex2
                {
                  OFFSET -2.54057 -0.884171 1.56538
                  CHANNELS 3 Zrotation Xrotation Yrotation
                  End Site
                  {
                    OFFSET -1.62519 -0.234802 1.16502
                  }
                }
              }
              JOINT rMid1
              {
                OFFSET -8.24714 1.18213 3.41376
                CHANNELS 3 Zrotation Xrotation Yrotation
                JOINT rMid2
                {
                  OFFSET -3.10165 -0.590103 1.0647
                  CHANNELS 3 Zrotation Xrotation Yrotation
                  End Site
                  {
                    OFFSET -2.48547 -0.328903 0.83742
                  }
                }
              }
              JOINT rRing1
              {
                OFFSET -8.82822 0.546677 1.51678
                CHANNELS 3 Zrotation Xrotation Yrotation
                JOINT rRing2
                {
                  OFFSET -2.60934 -0.819778 -0.0198488
                  CHANNELS 3 Zrotation Xrotation Yrotation
                  End Site
                  {
                    OFFSET -2.33842 -0.294052 0.168128
                  }
                }
              }
              JOINT rPinky1
              {
                OFFSET -8.27202 -0.0477905 -0.4584
                CHANNELS 3 Zrotation Xrotation Yrotation
                JOINT rPinky2
                {
                  OFFSET -1.82734 -0.647385 -0.700984
                  CHANNELS 3 Zrotation Xrotation Yrotation
                  End Site
                  {
                    OFFSET -1.69225 -0.51767 -0.607171
                  }
                }
              }
            }
          }
        }
      }
      JOINT lCollar
      {
        OFFSET 2.68224 19.2634 -4.8768
        CHANNELS 3 Zrotation Xrotation Yrotation
        JOINT lShldr
        {
          OFFSET 8.77824 -1.95073 1.46304
          CHANNELS 3 Zrotation Xrotation Yrotation
          JOINT lForeArm
          {
            OFFSET 28.1742 -1.7115 0.48768
            CHANNELS 3 Zrotation Xrotation Yrotation
            JOINT lHand
            {
              OFFSET 22.5879 0.773209 7.07136
              CHANNELS 3 Zrotation Xrotation Yrotation
              JOINT lThumb1
              {
                OFFSET 1.2192 -0.487915 3.41376
                CHANNELS 3 Zrotation Xrotation Yrotation
                JOINT lThumb2
                {
                  OFFSET 3.37035 -0.52449 3.41376
                  CHANNELS 3 Zrotation Xrotation Yrotation
                  End Site
                  {
                    OFFSET 1.78271 -1.18214 1.43049
                  }
                }
              }
              JOINT lIndex1
              {
                OFFSET 7.75947 0.938293 5.60832
                CHANNELS 3 Zrotation Xrotation Yrotation
                JOINT lIndex2
                {
                  OFFSET 2.54057 -0.884171 1.56538
                  CHANNELS 3 Zrotation Xrotation Yrotation
                  End Site
                  {
                    OFFSET 1.62519 -0.234802 1.16502
                  }
                }
              }
              JOINT lMid1
              {
                OFFSET 8.24714 1.18213 3.41376
                CHANNELS 3 Zrotation Xrotation Yrotation
                JOINT lMid2
                {
                  OFFSET 3.10165 -0.590103 1.0647
                  CHANNELS 3 Zrotation Xrotation Yrotation
                  End Site
                  {
                    OFFSET 2.48547 -0.328903 0.83742
                  }
                }
              }
              JOINT lRing1
              {
                OFFSET 8.82822 0.546677 1.51678
                CHANNELS 3 Zrotation Xrotation Yrotation
                JOINT lRing2
                {
                  OFFSET 2.60934 -0.819778 -0.0198488
                  CHANNELS 3 Zrotation Xrotation Yrotation
                  End Site
                  {
                    OFFSET 2.33842 -0.294052 0.168128
                  }
                }
              }
              JOINT lPinky1
              {
                OFFSET 8.27202 -0.0477905 -0.4584
                CHANNELS 3 Zrotation Xrotation Yrotation
                JOINT lPinky2
                {
                  OFFSET 1.82734 -0.647385 -0.700984
                  CHANNELS 3 Zrotation Xrotation Yrotation
                  End Site
                  {
                    OFFSET 1.69225 -0.51767 -0.607171
                  }
                }
              }
            }
          }
        }
      }
    }
  }
  JOINT rButtock
  {
    OFFSET -8.77824 4.35084 1.2192
    CHANNELS 3 Zrotation Xrotation Yrotation
    JOINT rThigh
    {
      OFFSET 0 -1.70687 -2.19456
      CHANNELS 3 Zrotation Xrotation Yrotation
      JOINT rShin
      {
        OFFSET 0 -36.8199 0.73152
        CHANNELS 3 Zrotation Xrotation Yrotation
        JOINT rFoot
        {
          OFFSET 0.73152 -45.1104 -5.12064
          CHANNELS 3 Zrotation Xrotation Yrotation
          End Site
          {
            OFFSET -1.1221 -3.69964 12.103
          }
        }
      }
    }
  }
  JOINT lButtock
  {
    OFFSET 8.77824 4.35084 1.2192
    CHANNELS 3 Zrotation Xrotation Yrotation
    JOINT lThigh
    {
      OFFSET 0 -1.70687 -2.19456
      CHANNELS 3 Zrotation Xrotation Yrotation
      JOINT lShin
      {
        OFFSET 0 -36.8199 0.73152
        CHANNELS 3 Zrotation Xrotation Yrotation
        JOINT lFoot
        {
          OFFSET -0.73152 -45.1104 -5.12064
          CHANNELS 3 Zrotation Xrotation Yrotation
          End Site
          {
            OFFSET 1.1221 -3.69964 12.103
          }
        }
      }
    }
  }
}
MOTION
Frames:	8
Frame Time:	0.00833333
-15.4385 84.8033 -26.5891 0.0 0.0 0.0 -0.305087 -0.00406098 -0.00879774 -0.0843766 -0.00666553 -0.0146211 6.49134e-15 0.0 -2.79541e-17 1.94592e-14 3.18055e-15 -8.23093e-17 -0.0 0.0 0.0 -0.0 0.0 0.0 3.27886e-15 2.32951e-17 1.49089e-16 7.07492e-14 6.02566e-16 9.93923e-16 1.17601e-12 -3.25212e-13 -9.54166e-15 1.33631e-11 4.61056e-13 -4.13472e-14 3.1537e-11 2.92573e-13 -1.17681e-13 5.44598e-11 4.99347e-13 -2.07531e-13 3.15435e-11 2.95394e-13 -1.24042e-13 7.73091 5.47488 0.417314 3.15363e-11 2.93009e-13 -1.24042e-13 2.90554 0.965183 0.102902 3.15436e-11 2.92909e-13 -1.20861e-13 10.2786 0.731801 0.0259123 3.15308e-11 2.95394e-13 -1.17681e-13 2.22167 -0.733487 -0.20892 3.18185e-15 2.3101e-17 -1.49089e-16 6.60516e-14 3.91357e-16 -1.19271e-15 1.1618e-12 3.68746e-13 -6.36111e-15 1.33694e-11 -2.54146e-13 -3.18055e-14 3.15232e-11 2.49001e-13 -1.20861e-13 5.44483e-11 4.32555e-13 -2.09121e-13 3.15193e-11 2.52059e-13 -1.17681e-13 -7.73091 5.47488 -0.417314 3.15234e-11 2.49674e-13 -1.24042e-13 -2.90554 0.965183 -0.102902 3.15182e-11 2.49574e-13 -1.20066e-13 -10.2786 0.731801 -0.0259123 3.15292e-11 2.51264e-13 -1.24042e-13 -2.22167 -0.733487 0.20892 -2.03217e-16 0.0 -3.88251e-19 0.199389 -2.70344 -0.028872 -0.00656368 -0.65337 -0.0573646 -0.430009 3.35781 0.115505 2.03217e-16 0.0 3.88251e-19 -0.667226 -3.93836 0.0583937 0.00310856 1.58344 0.0241661 0.437786 2.35596 -0.0966872
-16.2182 82.1776 -28.8325 -2.9411 -0.4509 12.1873 1.46462 -4.24483 -0.583339 -0.697169 -0.697577 -0.254031 3.36302 1.66375 1.5366 -2.66165 7.47339 3.05667 -0.0 0.0 0.0 -0.0 0.0 0.0 -2.78856e-15 -1.00444e-13 2.44455e-14 21.6013 7.10751 -1.49012 -3.94158 -1.73896 6.21159 0.0297078 3.82499 0.533249 -2.7996e-10 -4.68409e-12 3.77904e-10 -4.78823e-10 -1.37492e-11 6.56171e-10 -2.79952e-10 -4.68303e-12 3.77898e-10 7.73091 5.47488 0.417314 -2.7996e-10 -4.68483e-12 3.77899e-10 2.90554 0.965183 0.102902 -2.79953e-10 -4.68637e-12 3.77901e-10 10.2786 0.731801 0.0259123 -2.79966e-10 -4.68482e-12 3.77907e-10 2.22167 -0.733487 -0.20892 -2.95852e-15 -1.00445e-13 2.41314e-14 -21.6102 6.59897 3.44368 5.02344 -2.46916 -7.63294 -0.047113 4.81799 -0.668507 5.60997e-11 -1.38211e-10 -1.4925e-10 9.45778e-11 -2.41299e-10 -2.5839e-10 5.6096e-11 -1.38209e-10 -1.49244e-10 -7.73091 5.47488 -0.417314 5.60986e-11 -1.38213e-10 -1.49257e-10 -2.90554 0.965183 -0.102902 5.60938e-11 -1.38211e-10 -1.49249e-10 -10.2786 0.731801 -0.0259123 5.61051e-11 -1.38209e-10 -1.49254e-10 -2.22167 -0.733487 0.20892 -2.03217e-16 0.0 -3.88251e-19 2.23854 -8.69432 1.54622 0.0294046 7.44505 0.108904 -0.882804 -1.42548 -4.26894 2.03217e-16 0.0 3.88251e-19 -0.394748 -10.7379 -2.05825 -0.0370266 10.2377 -0.166912 1.17002 -2.46094 5.51861
-16.226 82.1785 -28.8296 -2.9704 -0.4637 12.1765 3.24377 -8.72371 -1.202 -1.35139 -1.42775 -0.507465 6.8209 3.41507 3.16722 -6.368 15.3229 6.4691 -0.0 0.0 0.0 -0.0 0.0 0.0 -9.50087e-15 -2.06527e-13 5.00968e-14 44.8517 14.6038 -3.14427 -7.70033 -3.50868 12.7953 -0.0169895 7.87158 1.10551 -6.01513e-10 -1.38839e-11 7.754e-10 -1.02919e-09 -3.55656e-11 1.34628e-09 -6.01504e-10 -1.38847e-11 7.75396e-10 7.73091 5.47488 0.417314 -6.01512e-10 -1.38859e-11 7.75397e-10 2.90554 0.965183 0.102902 -6.01505e-10 -1.3889e-11 7.75398e-10 10.2786 0.731801 0.0259123 -6.01518e-10 -1.38885e-11 7.75407e-10 2.22167 -0.733487 -0.20892 -9.75081e-15 -2.06528e-13 4.97645e-14 -45.3393 13.4959 7.23726 9.62384 -4.93221 -15.745 0.0270325 9.91332 -1.3917 7.78712e-11 -2.88819e-10 -3.09459e-10 1.29655e-10 -5.04176e-10 -5.35685e-10 7.7868e-11 -2.88819e-10 -3.0945e-10 -7.73091 5.47488 -0.417314 7.78688e-11 -2.88826e-10 -3.0947e-10 -2.90554 0.965183 -0.102902 7.78644e-11 -2.8882e-10 -3.09458e-10 -10.2786 0.731801 -0.0259123 7.78759e-11 -2.88819e-10 -3.09464e-10 -2.22167 -0.733487 0.20892 -2.03217e-16 0.0 -3.88251e-19 4.76453 -15.012 3.28733 0.0146299 16.0062 0.294149 -2.15797 -6.41101 -8.95689 2.03217e-16 0.0 3.88251e-19 -0.67775 -17.8911 -4.43639 -0.0133124 19.3862 -0.385295 2.97095 -7.42489 11.542
-16.235 82.1787 -28.8298 -3.0024 -0.4858 12.1806 4.74345 -12.7211 -1.77111 -1.94008 -2.07925 -0.733278 9.82081 4.97687 4.62534 -10.5272 22.1546 9.82374 -0.0 0.0 0.0 -0.0 0.0 0.0 -1.49234e-14 -3.01379e-13 7.30382e-14 65.9805 21.2627 -4.76074 -10.7122 -4.9721 18.6991 -0.128146 11.471 1.62873 -9.02953e-10 -1.46374e-11 1.13395e-09 -1.54539e-09 -4.22462e-11 1.96893e-09 -9.02944e-10 -1.46399e-11 1.13394e-09 7.73091 5.47488 0.417314 -9.02952e-10 -1.46405e-11 1.13394e-09 2.90554 0.965183 0.102902 -9.02945e-10 -1.46449e-11 1.13395e-09 10.2786 0.731801 0.0259123 -9.02958e-10 -1.46453e-11 1.13396e-09 2.22167 -0.733487 -0.20892 -1.52393e-14 -3.0138e-13 7.26923e-14 -67.3183 19.5021 10.8945 13.1432 -6.88276 -23.0531 0.205245 14.446 -2.06371 1.05253e-10 -4.1513e-10 -4.47509e-10 1.74837e-10 -7.24761e-10 -7.74752e-10 1.0525e-10 -4.15132e-10 -4.47498e-10 -7.73091 5.47488 -0.417314 1.05249e-10 -4.1514e-10 -4.47524e-10 -2.90554 0.965183 -0.102902 1.05245e-10 -4.15132e-10 -4.47508e-10 -10.2786 0.731801 -0.0259123 1.05257e-10 -4.1513e-10 -4.47515e-10 -2.22167 -0.733487 0.20892 -2.03217e-16 0.0 -3.88251e-19 7.36341 -20.6145 4.96142 -0.0496672 23.6412 0.478869 -3.99372 -10.7171 -13.269 2.03217e-16 0.0 3.88251e-19 -1.48242 -24.2066 -6.78184 0.0745859 27.5449 -0.610251 5.47022 -11.6081 17.0938
-16.2342 82.1797 -28.7954 -2.9963 -0.4979 12.1659 5.73056 -15.5199 -2.17958 -2.35272 -2.5342 -0.889634 11.8649 6.07858 5.6375 -13.9512 26.6973 12.4015 -0.0 0.0 0.0 -0.0 0.0 0.0 -1.71215e-14 -3.6815e-13 8.92046e-14 80.9513 25.8847 -6.00772 -12.633 -5.90252 22.8418 -0.245005 13.9561 2.00155 -1.15411e-09 5.72499e-12 1.39512e-09 -1.97616e-09 -1.10874e-11 2.42292e-09 -1.1541e-09 5.72102e-12 1.39512e-09 7.73091 5.47488 0.417314 -1.15411e-09 5.72072e-12 1.39512e-09 2.90554 0.965183 0.102902 -1.15411e-09 5.71576e-12 1.39512e-09 10.2786 0.731801 0.0259123 -1.15412e-09 5.71506e-12 1.39513e-09 2.22167 -0.733487 -0.20892 -1.74682e-14 -3.68151e-13 8.88567e-14 -83.1271 23.5616 13.6745 15.2979 -8.05089 -28.2041 0.394679 17.5796 -2.55206 1.46659e-10 -4.80696e-10 -5.30163e-10 2.45282e-10 -8.39616e-10 -9.18252e-10 1.46655e-10 -4.80699e-10 -5.30151e-10 -7.73091 5.47488 -0.417314 1.46655e-10 -4.80708e-10 -5.30179e-10 -2.90554 0.965183 -0.102902 1.46651e-10 -4.80699e-10 -5.30163e-10 -10.2786 0.731801 -0.0259123 1.46663e-10 -4.80697e-10 -5.3017e-10 -2.22167 -0.733487 0.20892 -2.03217e-16 0.0 -3.88251e-19 9.38554 -24.4864 6.22656 -0.128037 28.9613 0.625813 -5.6715 -13.6012 -16.389 2.03217e-16 0.0 3.88251e-19 -2.39769 -28.5484 -8.60318 0.181725 33.2304 -0.794752 7.7115 -14.3204 21.1081
-16.2341 82.1802 -28.7665 -3.0014 -0.5031 12.1599 6.08603 -16.6433 -2.33593 -2.51275 -2.71483 -0.948227 12.6566 6.55177 6.01532 -15.3957 28.219 13.4136 -0.0 0.0 0.0 -0.0 0.0 0.0 -1.31469e-14 -3.97267e-13 9.6296e-14 86.8612 27.6986 -6.52238 -13.3536 -6.2475 24.4842 -0.29785 14.8796 2.14319 -1.36448e-09 8.27423e-11 1.51162e-09 -2.33861e-09 1.19813e-10 2.62671e-09 -1.36447e-09 8.27368e-11 1.51162e-09 7.73091 5.47488 0.417314 -1.36448e-09 8.27365e-11 1.51162e-09 2.90554 0.965183 0.102902 -1.36447e-09 8.2732e-11 1.51162e-09 10.2786 0.731801 0.0259123 -1.36448e-09 8.27318e-11 1.51164e-09 2.22167 -0.733487 -0.20892 -1.34702e-14 -3.97268e-13 9.59625e-14 -89.414 25.1034 14.8331 16.0895 -8.4657 -30.2558 0.481512 18.7548 -2.74171 2.02878e-10 -4.68868e-10 -5.3456e-10 3.42862e-10 -8.19532e-10 -9.26647e-10 2.02873e-10 -4.68869e-10 -5.34548e-10 -7.73091 5.47488 -0.417314 2.02875e-10 -4.68878e-10 -5.34574e-10 -2.90554 0.965183 -0.102902 2.02871e-10 -4.6887e-10 -5.3456e-10 -10.2786 0.731801 -0.0259123 2.02882e-10 -4.68868e-10 -5.34568e-10 -2.22167 -0.733487 0.20892 -2.03217e-16 0.0 -3.88251e-19 10.2218 -25.9771 6.74722 -0.167421 31.0415 0.689355 -6.42299 -14.7028 -17.6483 2.03217e-16 0.0 3.88251e-19 -2.85141 -30.2158 -9.36953 0.236069 35.4538 -0.875247 8.70279 -15.3263 22.7222
-16.2203 82.1806 -28.7368 -3.0031 -0.4992 12.1561 6.01145 -16.5711 -2.30423 -2.49113 -2.69951 -0.93692 12.5736 6.57852 5.93698 -15.1919 27.6411 13.1703 -0.0 0.0 0.0 -0.0 0.0 0.0 -4.84215e-15 -3.9941e-13 9.68858e-14 86.1833 27.5204 -6.44631 -13.2893 -6.22048 24.331 -0.288151 14.6885 2.11401 -1.54429e-09 1.98937e-10 1.52519e-09 -2.64982e-09 3.19732e-10 2.65245e-09 -1.54428e-09 1.9893e-10 1.52518e-09 7.73091 5.47488 0.417314 -1.54429e-09 1.9893e-10 1.52519e-09 2.90554 0.965183 0.102902 -1.54429e-09 1.98926e-10 1.52519e-09 10.2786 0.731801 0.0259123 -1.5443e-09 1.98927e-10 1.5252e-09 2.22167 -0.733487 -0.20892 -5.10362e-15 -3.99411e-13 9.65783e-14 -88.6766 24.9113 14.7157 16.025 -8.44055 -30.0748 0.46662 18.5329 -2.70607 2.69907e-10 -4.01393e-10 -4.83092e-10 4.60218e-10 -7.02441e-10 -8.38603e-10 2.699e-10 -4.01392e-10 -4.83082e-10 -7.73091 5.47488 -0.417314 2.69906e-10 -4.01399e-10 -4.83102e-10 -2.90554 0.965183 -0.102902 2.69902e-10 -4.01395e-10 -4.83094e-10 -10.2786 0.731801 -0.0259123 2.69913e-10 -4.01392e-10 -4.831e-10 -2.22167 -0.733487 0.20892 -2.03217e-16 0.0 -3.88251e-19 10.1142 -25.7797 6.6835 -0.16273 30.8077 0.683112 -6.34578 -14.5941 -17.5219 2.03217e-16 0.0 3.88251e-19 -2.81266 -30.0009 -9.28322 0.229779 35.2045 -0.865475 8.59574 -15.2187 22.5528
-16.2036 82.181 -28.7064 -3.0027 -0.4871 12.1538 5.76625 -16.0219 -2.19836 -2.39795 -2.60461 -0.898045 12.1388 6.41705 5.67571 -14.345 26.2378 12.4379 -0.0 0.0 0.0 -0.0 0.0 0.0 2.54105e-15 -3.88109e-13 9.42189e-14 82.8734 26.5451 -6.13639 -12.9098 -6.04395 23.4564 -0.254411 14.0589 2.01786 -1.66453e-09 2.87455e-10 1.51093e-09 -2.85848e-09 4.7243e-10 2.6295e-09 -1.66453e-09 2.87447e-10 1.51092e-09 7.73091 5.47488 0.417314 -1.66453e-09 2.87446e-10 1.51094e-09 2.90554 0.965183 0.102902 -1.66453e-09 2.87444e-10 1.51094e-09 10.2786 0.731801 0.0259123 -1.66454e-09 2.87446e-10 1.51095e-09 2.22167 -0.733487 -0.20892 2.34875e-15 -3.8811e-13 9.39421e-14 -85.1341 24.0285 14.0895 15.6179 -8.23919 -28.9976 0.412438 17.7608 -2.58209 3.48975e-10 -2.99425e-10 -4.10404e-10 5.98655e-10 -5.2561e-10 -7.14076e-10 3.48966e-10 -2.99422e-10 -4.10396e-10 -7.73091 5.47488 -0.417314 3.48975e-10 -2.99427e-10 -4.1041e-10 -2.90554 0.965183 -0.102902 3.48972e-10 -2.99425e-10 -4.10407e-10 -10.2786 0.731801 -0.0259123 3.48982e-10 -2.99423e-10 -4.10413e-10 -2.22167 -0.733487 0.20892 -2.03217e-16 0.0 -3.88251e-19 9.63012 -24.9076 6.38378 -0.140334 29.6478 0.648783 -5.93617 -14.0023 -16.8392 2.03217e-16 0.0 3.88251e-19 -2.57622 -29.0347 -8.85511 0.199318 33.9671 -0.81978 8.04835 -14.6671 21.6667
